<?xml version="1.0" standalone="no"?>
<!DOCTYPE svg PUBLIC "-//W3C//DTD SVG 20010904//EN"
 "http://www.w3.org/TR/2001/REC-SVG-20010904/DTD/svg10.dtd">
<svg version="1.0" xmlns="http://www.w3.org/2000/svg"
 width="144.000000pt" height="144.000000pt" viewBox="0 0 144.000000 144.000000"
 preserveAspectRatio="xMidYMid meet">
<metadata>
Created by potrace 1.11, written by Peter Selinger 2001-2013
</metadata>
<g transform="translate(0.000000,144.000000) scale(0.100000,-0.100000)"
fill="#000000" stroke="none">
<path d="M615 1424 c-84 -13 -176 -45 -254 -90 -60 -35 -190 -167 -227 -230
-15 -27 -31 -51 -34 -54 -13 -10 -70 -160 -84 -220 -10 -40 -14 -97 -11 -159
7 -185 67 -287 215 -364 53 -28 64 -38 67 -63 6 -45 40 -114 70 -141 28 -27
97 -59 141 -68 15 -3 43 -8 62 -12 47 -9 265 -10 318 -1 103 18 176 47 212 86
34 37 62 101 69 164 1 3 26 18 56 32 69 31 149 111 180 179 113 249 -12 623
-273 819 -143 106 -323 150 -507 122z"/>
</g>
</svg>
